<?xml version="1.0" standalone="no"?>
<!DOCTYPE svg PUBLIC "-//W3C//DTD SVG 20010904//EN"
 "http://www.w3.org/TR/2001/REC-SVG-20010904/DTD/svg10.dtd">
<svg version="1.0" xmlns="http://www.w3.org/2000/svg"
 width="180.000000pt" height="180.000000pt" viewBox="0 0 180.000000 180.000000"
 preserveAspectRatio="xMidYMid meet">

<g transform="translate(0.000000,180.000000) scale(0.100000,-0.100000)"
fill="#000000" stroke="none">
<path d="M775 1785 c-196 -27 -377 -119 -518 -263 l-49 -49 49 -7 c26 -4 91
-15 143 -26 198 -39 236 -43 270 -31 50 17 80 14 80 -8 0 -15 -10 -20 -51 -25
-40 -6 -59 -14 -81 -39 -42 -44 -79 -100 -125 -187 -64 -121 -72 -110 80 -110
l132 0 40 67 c22 37 50 93 61 125 24 64 75 132 126 167 18 13 46 41 61 62 27
37 47 50 47 30 0 -6 -4 -13 -10 -16 -5 -3 -10 -10 -10 -15 0 -4 24 1 53 13 38
15 76 20 142 21 79 1 94 -2 123 -22 43 -32 62 -71 62 -132 0 -65 -28 -134
-122 -296 -113 -195 -122 -217 -122 -302 -1 -77 4 -85 52 -98 39 -11 110 25
179 89 98 92 200 242 292 432 l44 89 -39 74 c-78 149 -218 286 -373 365 -109
55 -196 82 -316 96 -105 13 -102 13 -220 -4z"/>
<path d="M1112 1451 c-92 -32 -153 -81 -198 -157 -77 -135 -87 -159 -80 -187
23 -94 140 -85 191 14 20 38 20 123 0 139 -11 9 -13 16 -6 23 15 15 49 -19 60
-61 8 -25 6 -46 -6 -81 -30 -92 -78 -121 -207 -127 -50 -2 -94 -8 -98 -12 -15
-15 -88 -227 -94 -273 -7 -54 7 -89 37 -89 27 0 105 76 154 149 38 58 55 73
55 51 0 -23 -84 -142 -126 -179 -67 -58 -138 -66 -180 -19 -41 45 -14 209 55
331 l21 37 -133 0 -132 0 -63 -124 c-77 -150 -156 -249 -233 -290 -30 -16 -56
-30 -58 -32 -1 -1 17 -40 40 -85 198 -372 637 -556 1042 -438 407 119 686 535
636 951 -13 111 -37 204 -50 191 -12 -12 -43 -100 -84 -238 -82 -274 -170
-451 -273 -547 -71 -66 -124 -90 -207 -95 -90 -5 -120 9 -120 56 0 19 6 36 13
39 7 2 12 -5 12 -17 0 -46 82 -66 152 -37 41 18 101 81 153 162 43 66 123 218
147 279 9 22 24 58 33 80 19 46 17 44 -54 -47 -100 -128 -203 -198 -292 -198
-114 0 -158 71 -125 199 19 76 47 130 142 282 41 66 84 140 94 165 22 50 26
124 10 155 -27 49 -130 63 -228 30z"/>
<path d="M145 1380 c-14 -22 -37 -66 -51 -97 -15 -32 -30 -65 -34 -73 -41 -85
-64 -277 -49 -402 9 -80 34 -195 45 -207 6 -6 69 37 91 63 44 50 92 127 147
236 l57 110 -116 0 c-89 0 -116 3 -113 13 3 8 39 13 124 15 l119 3 34 62 c48
88 135 210 175 245 l34 29 -47 7 c-25 3 -82 13 -126 21 -44 8 -122 15 -172 15
l-93 0 -25 -40z"/>
<path d="M790 1061 c-10 -19 -8 -21 16 -21 24 0 25 2 13 18 -7 9 -14 19 -15
20 -1 2 -7 -6 -14 -17z"/>
</g>
</svg>
